<svg width="90" height="90" viewBox="0 0 90 90" fill="none" xmlns="http://www.w3.org/2000/svg">
  <path d="M51.7782 20.2919H48.6758V13.2338C48.6758 10.7519 46.6592 8.73527 44.1772 8.73527C41.6952 8.73527 39.6786 10.7519 39.6786 13.2338V20.2919H36.5762V13.2338C36.5762 9.04552 39.9889 5.63281 44.1772 5.63281C48.3655 5.63281 51.7782 9.04552 51.7782 13.2338V20.2919Z" fill="#C4C1AB"/>
  <path d="M37.662 14.3769C37.662 10.2041 40.9972 6.71387 45.17 6.66733H45.2941C45.8835 6.66733 45.9611 5.81415 45.3716 5.72108C44.9373 5.65903 44.4874 5.61249 44.0376 5.62801C39.8803 5.70557 36.5762 9.18032 36.5762 13.3531V20.2096H37.662V14.3769Z" fill="#EBEADF"/>
  <path d="M16.875 16.4883H71.4783V83.5014H16.875V16.4883Z" fill="#D84861"/>
  <path d="M16.875 16.4883H68.9963V80.7092H16.875V16.4883Z" fill="#FFA1B1"/>
  <path d="M19.668 19.2812H68.9971V80.71H19.668V19.2812Z" fill="#F37787"/>
  <path d="M22.3984 22.0156H65.9569V77.9685H22.3984V22.0156Z" fill="#EBEADF"/>
  <path d="M22.3984 68.1492V22.0156H58.3094V43.9345C58.3094 57.3061 47.4663 68.1492 34.0947 68.1492H22.3984Z" fill="white"/>
  <path d="M30.0293 16.4883H58.3082V27.0522H30.0293V16.4883Z" fill="#747E6C"/>
  <path d="M30.0293 24.0893V16.4883H54.1044V18.1326C54.1044 21.4212 51.4363 24.0893 48.1477 24.0893H30.0293Z" fill="#EBEADF"/>
  <path d="M32.1543 24.0856V18.1289H54.1042C54.1042 21.4175 51.4361 24.0856 48.1475 24.0856H32.1543Z" fill="#C4C1AB"/>
  <path d="M30.0273 34.6406H36.8528V41.466H30.0273V34.6406Z" fill="#68A1D6"/>
  <path d="M30.0273 46.582H36.8528V53.4074H30.0273V46.582Z" fill="#68A1D6"/>
  <path d="M30.0273 58.5273H36.8528V65.3528H30.0273V58.5273Z" fill="#68A1D6"/>
  <path d="M42.1602 37.2734H58.2929V38.8247H42.1602V37.2734Z" fill="#1F3F77"/>
  <path d="M42.1602 49.2188H58.2929V50.77H42.1602V49.2188Z" fill="#1F3F77"/>
  <path d="M42.1602 61.1641H58.2929V62.7153H42.1602V61.1641Z" fill="#1F3F77"/>
</svg>
